<svg width="17" height="27" viewBox="0 0 17 27" fill="none" xmlns="http://www.w3.org/2000/svg">
<path d="M10.625 0C11.3315 0 11.9 0.566895 11.9 1.26562V3.375H5.09995V1.26562C5.09995 0.566895 5.66839 0 6.37495 0H10.625ZM1.69995 7.9998C1.69995 7.17715 2.1802 6.42832 2.93192 6.08027L4.2287 5.47383C4.81201 5.2033 5.45058 5.0625 6.09339 5.0625H10.9065C11.5493 5.0625 12.1868 5.2033 12.7712 5.47383L14.0674 6.08027C14.774 6.42832 15.3 7.17715 15.3 7.9998C15.3 8.75918 14.9015 9.42363 14.2959 9.79805C14.9068 10.2621 15.3 10.9898 15.3 11.765C15.3 12.6932 14.8484 13.4684 14.1578 13.8744C14.8484 14.3754 15.3 15.1506 15.3 15.9838C15.3 16.9119 14.8484 17.6871 14.1578 18.1406C14.8484 18.5941 15.3 19.3693 15.3 20.25C15.3 21.1307 14.8484 21.9059 14.1578 22.3594C14.8484 22.8129 15.3 23.5881 15.3 24.4688C15.3 25.8662 14.1578 27 12.75 27H4.24995C2.84161 27 1.69995 25.8662 1.69995 24.4688C1.69995 23.5881 2.15258 22.8129 2.84001 22.3594C2.15258 21.9059 1.69995 21.1307 1.69995 20.25C1.69995 19.3693 2.15258 18.5941 2.84001 18.1406C2.15258 17.6871 1.69995 16.9119 1.69995 15.9838C1.69995 15.1506 2.15258 14.3754 2.84001 13.8744C2.15258 13.4684 1.69995 12.6932 1.69995 11.765C1.69995 10.9898 2.09308 10.2621 2.70242 9.79805C2.09998 9.42363 1.69995 8.75918 1.69995 7.9998ZM5.94995 13.5H11.05C11.5175 13.5 11.9 13.1203 11.9 12.6562C11.9 12.1922 11.5175 11.8125 11.05 11.8125H5.94995C5.48245 11.8125 5.09995 12.1922 5.09995 12.6562C5.09995 13.1203 5.48245 13.5 5.94995 13.5ZM5.94995 18.5625C5.48245 18.5625 5.09995 18.9422 5.09995 19.4062C5.09995 19.8703 5.48245 20.25 5.94995 20.25H11.05C11.5175 20.25 11.9 19.8703 11.9 19.4062C11.9 18.9422 11.5175 18.5625 11.05 18.5625H5.94995Z" fill="white"/>
</svg>
