<svg width="19" height="27" viewBox="0 0 19 27" fill="none" xmlns="http://www.w3.org/2000/svg">
<path fill-rule="evenodd" clip-rule="evenodd" d="M13.625 0.299988H5.37505C2.6245 1.40054 0.974499 3.05054 0.425049 5.24999V21.75C0.425049 23.0628 0.946565 24.3219 1.87487 25.2502C2.80318 26.1785 4.06223 26.7 5.37505 26.7H13.625C14.9379 26.7 16.1969 26.1785 17.1252 25.2502C18.0535 24.3219 18.575 23.0628 18.575 21.75V5.24999C18.0256 3.05054 16.3756 1.40054 13.625 0.299988ZM3.72505 21.75V5.73509C4.03855 4.90679 4.75465 4.20719 6.0532 3.59999H12.9469C14.2454 4.20719 14.9615 4.90679 15.275 5.73509V21.75C15.275 22.1876 15.1012 22.6073 14.7918 22.9167C14.4823 23.2261 14.0627 23.4 13.625 23.4H5.37505C4.93744 23.4 4.51776 23.2261 4.20832 22.9167C3.89889 22.6073 3.72505 22.1876 3.72505 21.75Z" fill="white"/>
<path fill-rule="evenodd" clip-rule="evenodd" d="M4.55005 12.675C4.55005 14.4254 5.2454 16.1041 6.48314 17.3419C7.72088 18.5796 9.39962 19.275 11.15 19.275C12.9005 19.275 14.5792 18.5796 15.817 17.3419C17.0547 16.1041 17.75 14.4254 17.75 12.675C17.75 10.9246 17.0547 9.24582 15.817 8.00808C14.5792 6.77034 12.9005 6.07498 11.15 6.07498C9.39962 6.07498 7.72088 6.77034 6.48314 8.00808C5.2454 9.24582 4.55005 10.9246 4.55005 12.675ZM9.1783 14.9932C8.7691 15.0939 8.10085 15.2985 7.16365 15.6087C7.12931 15.5625 7.09575 15.5157 7.063 15.4684C9.1387 14.8447 10.8118 13.8927 12.0658 12.6073C13.1911 11.4573 13.955 10.2165 14.3461 8.89483C14.5919 9.10273 14.8163 9.33373 15.0176 9.58618C15.2222 10.9639 15.0671 11.9902 14.5919 12.6948C14.0045 13.5627 13.0244 14.1055 12.1087 14.3448C11.9899 14.3761 11.7754 14.424 11.4437 14.4966L10.787 14.6368L10.4356 14.7111L10.2491 14.7507C9.79705 14.8497 9.4522 14.9272 9.17665 14.9949L9.1783 14.9932Z" fill="white"/>
</svg>
