<svg width="32" height="30" viewBox="0 0 32 30" fill="none" xmlns="http://www.w3.org/2000/svg">
<path d="M18.7842 0C10.5886 0 6.30135 2.29329 6.30135 4.55892V8.46083C6.26401 8.49121 6.231 8.52539 6.20069 8.56283C5.82565 9.02832 5.45603 9.50412 5.09398 9.98589C2.25658 13.7657 -0.0537087 17.9291 0.000950319 20.7346C0.018268 21.6309 0.27641 22.3888 0.83653 22.9514L1.0254 23.1407C1.58227 23.7001 2.35778 23.9784 3.33244 23.9784C4.1756 23.9784 5.17245 23.7636 6.30135 23.3491V25.3841C6.30135 27.6497 10.5891 29.943 18.7842 29.943C26.9798 29.943 31.267 27.6497 31.267 25.3841V4.55892C31.267 2.29329 26.9798 0 18.7842 0ZM29.8404 25.3841C29.8404 26.6591 25.5332 28.5113 18.7842 28.5113C12.0351 28.5113 7.7279 26.6591 7.7279 25.3841V22.749C8.1354 22.5575 8.55319 22.3508 8.98938 22.1153C12.5125 20.2089 16.5545 17.0492 20.3709 13.2178C20.4039 13.1847 20.4337 13.1483 20.4597 13.1093C20.4856 13.0702 20.5073 13.029 20.5251 12.9856C20.543 12.9422 20.5565 12.8977 20.5652 12.8516C20.5744 12.8054 20.5787 12.7588 20.5787 12.7121C20.5787 12.6649 20.5744 12.6188 20.5652 12.5727C20.556 12.5266 20.5425 12.4821 20.5246 12.4387C20.5067 12.3953 20.4846 12.3541 20.4586 12.315C20.4326 12.2759 20.4028 12.2401 20.3698 12.2065C20.3368 12.1734 20.3011 12.1441 20.2621 12.1175C20.2232 12.0915 20.182 12.0698 20.1387 12.0519C20.096 12.0334 20.0511 12.0199 20.0056 12.0106C19.9596 12.0014 19.9131 11.9971 19.8665 11.9971C19.8194 11.9971 19.7734 12.0014 19.7274 12.0106C19.6814 12.0199 19.6371 12.0329 19.5938 12.0508C19.5505 12.0687 19.5093 12.0909 19.4704 12.117C19.4314 12.143 19.3957 12.1723 19.3622 12.2054C15.641 15.9408 11.7164 19.0126 8.31237 20.855C8.1143 20.9619 7.91947 21.0639 7.7279 21.161C7.48382 21.2847 7.24733 21.3976 7.01462 21.505C6.77055 21.6173 6.53243 21.7209 6.30135 21.8159C4.23405 22.6622 2.69548 22.7913 2.03416 22.1284L1.84475 21.9385C1.26893 21.3601 1.26677 20.0624 1.93566 18.2015C2.62891 16.2706 4.04626 13.7321 6.30081 10.7552V20.3255C6.53135 20.2306 6.76893 20.1264 7.01408 20.0125C7.24571 19.9045 7.48328 19.7884 7.72735 19.6642V6.92546C9.2183 7.99371 11.8685 8.85308 15.6204 9.16341C16.6703 9.30827 17.7245 9.37988 18.7842 9.37826C19.8438 9.37988 20.8986 9.30827 21.9479 9.16341C25.6999 8.85254 28.35 7.99371 29.8404 6.92546V25.3841ZM29.8404 4.55892V4.73036C29.8404 5.23003 29.177 5.8176 27.9674 6.3482L27.4333 5.95866C26.6475 5.38466 25.596 4.91157 24.3653 4.55892C22.7505 4.09559 20.8266 3.84006 18.7842 3.84006C16.7418 3.84006 14.8184 4.09559 13.2035 4.55892C11.9729 4.91157 10.9208 5.38466 10.1351 5.95866L9.60145 6.3482C8.39138 5.8176 7.7279 5.23003 7.7279 4.7309V4.55892C7.7279 3.28396 12.0351 1.43175 18.7847 1.43175C25.5337 1.43175 29.8404 3.28396 29.8404 4.55892ZM19.7816 18.1787C19.8433 18.0317 23.2484 11.2826 23.2484 11.2826C23.2484 11.2826 26.654 18.0317 26.7157 18.1787C26.7422 18.2487 26.7671 18.3198 26.7893 18.3914C26.812 18.463 26.8326 18.5357 26.8504 18.6084C26.8688 18.6816 26.8845 18.7549 26.8981 18.8287C26.9121 18.9025 26.9235 18.9768 26.9327 19.0517C26.9419 19.126 26.9489 19.2008 26.9533 19.2757C26.9581 19.3511 26.9608 19.426 26.9608 19.5014C26.9608 19.5763 26.9592 19.6517 26.9549 19.7266C26.95 19.8014 26.9435 19.8763 26.9349 19.9512C26.9262 20.026 26.9148 20.1004 26.9013 20.1742C26.8883 20.2479 26.8726 20.3217 26.8548 20.3944C26.8369 20.4677 26.8169 20.5398 26.7952 20.612C26.773 20.6836 26.7487 20.7547 26.7222 20.8252C26.6957 20.8957 26.667 20.9652 26.6367 21.0335C26.6058 21.1024 26.5734 21.1697 26.5387 21.2364C26.5041 21.3032 26.4673 21.3688 26.4289 21.4328C26.3899 21.4974 26.3493 21.5603 26.3071 21.6227C26.2643 21.6846 26.22 21.7448 26.174 21.8045C26.128 21.8636 26.0803 21.9211 26.0306 21.9775C25.9808 22.034 25.9299 22.0888 25.8769 22.1419C25.8238 22.1951 25.7697 22.2466 25.7134 22.2966C25.6577 22.3465 25.5998 22.3947 25.5413 22.4414C25.4823 22.4875 25.4217 22.532 25.3606 22.5749C25.2989 22.6177 25.2361 22.6584 25.1717 22.6975C25.1078 22.7365 25.0424 22.7734 24.9763 22.8087C24.9098 22.8434 24.8427 22.8765 24.7745 22.9074C24.7063 22.9384 24.637 22.9671 24.5672 22.9937C24.4969 23.0203 24.426 23.0447 24.3545 23.0675C24.2831 23.0897 24.2111 23.1098 24.1386 23.1277C24.0655 23.1462 23.9925 23.1619 23.9189 23.1755C23.8453 23.189 23.7711 23.2004 23.697 23.2091C23.6223 23.2183 23.5476 23.2254 23.4729 23.2297C23.3983 23.2341 23.3236 23.2368 23.2484 23.2368C23.1737 23.2368 23.099 23.2341 23.0243 23.2297C22.9491 23.2254 22.8749 23.2183 22.8003 23.2091C22.7261 23.2004 22.652 23.189 22.5784 23.1755C22.5048 23.1619 22.4317 23.1462 22.3587 23.1277C22.2861 23.1098 22.2142 23.0897 22.1427 23.0675C22.0707 23.0447 22.0004 23.0203 21.93 22.9937C21.8602 22.9671 21.791 22.9384 21.7228 22.9074C21.6546 22.8765 21.5869 22.8434 21.5209 22.8087C21.4543 22.7734 21.3894 22.7365 21.3255 22.6975C21.2611 22.6584 21.1984 22.6177 21.1367 22.5749C21.075 22.532 21.0149 22.4875 20.9559 22.4414C20.8969 22.3947 20.8396 22.3465 20.7838 22.2966C20.7275 22.2466 20.6734 22.1951 20.6204 22.1419C20.5674 22.0888 20.5159 22.034 20.4667 21.9775C20.4169 21.9211 20.3693 21.8636 20.3233 21.8045C20.2767 21.7448 20.2329 21.6846 20.1902 21.6227C20.1479 21.5603 20.1074 21.4974 20.0684 21.4328C20.03 21.3688 19.9932 21.3032 19.9585 21.2364C19.9239 21.1697 19.8914 21.1024 19.8606 21.0335C19.8297 20.9652 19.8016 20.8957 19.7751 20.8252C19.7486 20.7547 19.7242 20.6836 19.702 20.612C19.6798 20.5398 19.6598 20.4677 19.6425 20.3944C19.6246 20.3217 19.6089 20.2479 19.5954 20.1742C19.5824 20.1004 19.571 20.026 19.5624 19.9512C19.5537 19.8763 19.5467 19.8014 19.5424 19.7266C19.538 19.6517 19.5359 19.5763 19.5364 19.5014C19.5364 19.426 19.5391 19.3511 19.5434 19.2757C19.5483 19.2008 19.5553 19.126 19.5646 19.0517C19.5737 18.9768 19.5851 18.9025 19.5992 18.8287C19.6127 18.7549 19.6284 18.6816 19.6468 18.6084C19.6647 18.5357 19.6852 18.463 19.7074 18.3914C19.7302 18.3198 19.7545 18.2487 19.7816 18.1787Z" fill="white"/>
</svg>
