<svg width="30" height="30" viewBox="0 0 30 30" fill="none" xmlns="http://www.w3.org/2000/svg">
<g clip-path="url(#clip0_65_593)">
<path d="M20.6293 0H9.37085C7.81741 0 6.55835 1.25906 6.55835 2.8125V27.1875C6.55835 28.7409 7.81741 30 9.37085 30H20.6293C22.1827 30 23.4418 28.7409 23.4418 27.1875V2.8125C23.4418 1.25906 22.1827 0 20.6293 0ZM21.5668 27.1875C21.5668 27.705 21.1468 28.125 20.6293 28.125H9.37085C8.85335 28.125 8.43335 27.705 8.43335 27.1875V2.8125C8.43335 2.295 8.85335 1.875 9.37085 1.875H20.6293C21.1468 1.875 21.5668 2.295 21.5668 2.8125V27.1875ZM15.0015 23.4427C13.9679 23.4427 13.1312 24.2803 13.1312 25.3125C13.1312 26.3447 13.9683 27.1828 15.0015 27.1828C16.0351 27.1828 16.8718 26.3447 16.8718 25.3125C16.8718 24.2803 16.0351 23.4427 15.0015 23.4427ZM16.8765 2.8125H13.1265C12.609 2.8125 12.189 3.2325 12.189 3.75C12.189 4.2675 12.609 4.6875 13.1265 4.6875H16.8765C17.394 4.6875 17.814 4.2675 17.814 3.75C17.814 3.2325 17.394 2.8125 16.8765 2.8125Z" fill="white"/>
</g>
<defs>
<clipPath id="clip0_65_593">
<rect width="30" height="30" fill="white"/>
</clipPath>
</defs>
</svg>
